Coordinates
version=1
nRows=11
nColumns=36
inDegrees=yes

Units are S.I. units (second, meters, Newtons, ...)
If the header above contains a line with 'inDegrees', this indicates whether rotational values are in degrees (yes) or radians (no).

endheader
time	pelvis_tilt	pelvis_list	pelvis_rotation	pelvis_tx	pelvis_ty	pelvis_tz	hip_flexion_r	hip_adduction_r	hip_rotation_r	knee_angle_r	knee_angle_r_beta	ankle_angle_r	subtalar_angle_r	mtp_angle_r	hip_flexion_l	hip_adduction_l	hip_rotation_l	knee_angle_l	knee_angle_l_beta	ankle_angle_l	subtalar_angle_l	mtp_angle_l	lumbar_extension	lumbar_bending	lumbar_rotation	arm_flex_r	arm_add_r	arm_rot_r	elbow_flex_r	pro_sup_r	arm_flex_l	arm_add_l	arm_rot_l	elbow_flex_l	pro_sup_l
      3.37500000	     -5.68500235	     -1.17088659	      3.18930529	     -0.42966309	      1.49809062	     -0.08232422	      9.31761445	     -0.57802924	     -1.96273253	     45.00266837	      0.78544474	    -18.64771607	    -18.69047592	     -7.49999987	     11.70115404	     -2.09445358	     -2.96593423	     51.83222363	      0.90464296	    -20.74058755	     -8.58810783	     -7.49999987	    -11.86356914	      3.14134636	      0.54494612	     26.03849677	    -11.36070427	     14.54987824	     55.15926222	     70.38236513	     27.41068644	    -10.99501363	     27.19693319	     42.60564342	     66.18212161
      3.37916670	     -5.20968234	     -1.17022596	      3.08182365	     -0.42250560	      1.50286811	     -0.08281011	      9.10967863	     -0.61271949	     -1.79573168	     44.90848084	      0.78380085	    -18.42823982	    -17.81053638	     -7.49999987	     11.57285603	     -2.03386264	     -3.09861286	     51.96362104	      0.90693628	    -19.66927164	     -7.86594971	     -7.49999987	    -12.15878405	      3.12388596	      0.76125666	     25.29816945	    -11.32692003	     14.09671057	     54.06123670	     71.30128194	     27.02563735	    -10.43969289	     26.99074171	     40.63371224	     66.28449071
      3.38333330	     -4.86001703	     -1.18158811	      3.09472481	     -0.41594833	      1.50510312	     -0.08408701	      9.05233233	     -0.63591481	     -1.82375273	     45.08067864	      0.78680627	    -17.80450103	    -18.17032280	     -7.49999987	     11.48018249	     -1.95946151	     -3.04147060	     52.03694409	      0.90821601	    -19.20776573	     -8.10740687	     -7.49999987	    -12.50468177	      3.28289129	      0.70472077	     24.48267203	    -11.50997255	     14.09052343	     53.81802077	     71.32748020	     26.09719594	    -10.53760046	     27.10150445	     40.37064551	     66.28849337
      3.38750000	     -4.58728303	     -1.27723879	      3.25036882	     -0.41151020	      1.50759829	     -0.08369340	      9.22216200	     -0.57824189	     -2.00011861	     45.13746883	      0.78779745	    -15.43753401	    -17.68720931	     -7.49999987	     11.69483969	     -2.04193305	     -3.05385298	     52.50977248	      0.91646842	    -18.33649887	     -8.37272737	     -7.49999987	    -12.94378804	      3.52725518	      0.61123394	     23.80713425	    -11.47137711	     13.62835348	     53.55065741	     71.49846512	     25.40409060	    -10.49048320	     27.10029543	     39.95081710	     66.25434941
      3.39166670	     -4.32824855	     -1.19291117	      3.35781007	     -0.40666327	      1.50883711	     -0.08497089	      9.43947948	     -0.69022127	     -1.82990060	     45.30966419	      0.79080282	    -13.48040495	    -16.95794412	     -7.49999987	     12.13828784	     -1.85418992	     -2.93765056	     52.99778670	      0.92498587	    -17.41664673	     -8.91845146	     -7.49999987	    -13.42032687	      3.52507864	      0.82542066	     22.66178348	    -11.45690236	     12.22477498	     53.74694882	     73.71310629	     25.07800768	    -10.31299780	     27.79697274	     39.16021749	     65.75533206
      3.39583330	     -4.24585971	     -1.13527194	      3.42991242	     -0.40214177	      1.50913451	     -0.08407769	      9.82230370	     -0.70072215	     -1.47710324	     45.68481128	      0.79735037	    -11.28273108	    -15.65778851	     -7.49999987	     12.73841327	     -1.87688524	     -3.23343125	     53.28699236	      0.93003347	    -16.76866223	     -9.24658552	     -7.49999987	    -13.72152545	      3.57965644	      0.76008265	     21.96518236	    -11.49046468	     12.21061745	     53.56919062	     73.78755633	     24.39764221	    -10.33710939	     27.72331724	     38.84516911	     65.67997390
      3.40000000	     -4.10427779	     -1.12981613	      3.48542025	     -0.39623827	      1.50846185	     -0.08261441	     10.32874689	     -0.74767706	     -1.38979630	     46.15934873	      0.80563262	    -10.88938435	    -16.07052601	     -7.49999987	     13.23316125	     -1.93463065	     -3.15743323	     53.54948684	      0.93461486	    -16.64704787	     -9.43437984	     -7.49999987	    -14.27285652	      3.60776986	      0.64547819	     21.15676529	    -11.53826176	     12.09831554	     54.09270652	     72.14580068	     23.39564653	    -10.59580582	     27.27910504	     39.80491951	     64.83959699
      3.40416670	     -4.00049442	     -1.10481603	      3.50970042	     -0.39166044	      1.51397120	     -0.08198677	     10.79728481	     -0.93133990	     -1.52051912	     45.70489087	      0.79770083	    -11.58365660	    -16.05066403	     -7.49999987	     13.44518919	     -1.86616381	     -3.02793361	     52.92671211	      0.92374539	    -16.10678295	     -8.94027681	     -7.49999987	    -14.55190919	      3.64838297	      0.73557687	     20.60561808	    -11.47206905	     12.14999646	     53.33621864	     71.70166640	     22.96589180	    -10.29275824	     27.01345046	     38.63033781	     64.40977140
      3.40833330	     -3.84367056	     -1.19468587	      3.48700705	     -0.38610208	      1.51481983	     -0.08135799	     11.39148063	     -0.96750556	     -1.53156955	     45.63183679	      0.79642580	    -11.93786257	    -16.11306202	     -7.49999987	     13.60691169	     -1.93615089	     -2.87457337	     52.37322679	      0.91408525	    -15.40261050	     -9.01548947	     -7.49999987	    -14.98589373	      3.77141100	      0.77751107	     20.01694944	    -11.46492082	     12.24365675	     52.90656328	     71.36232951	     22.44264794	    -10.30669857	     26.99550932	     38.11675821	     64.04309715
      3.41250000	     -3.64077939	     -1.21913472	      3.54925297	     -0.38059218	      1.51462863	     -0.08196961	     11.99113589	     -1.08046412	     -1.58274092	     46.13737214	      0.80524905	    -11.66403267	    -16.65047117	     -7.49999987	     13.84866010	     -1.97542827	     -2.58474948	     52.18751013	      0.91084388	    -14.76181646	     -9.32976889	     -7.49999987	    -15.44580450	      3.85258542	      0.79847652	     19.44035125	    -11.46636236	     12.23284660	     52.35811929	     70.95766814	     21.90714531	    -10.31924966	     26.97142361	     37.70192869	     63.66718353
      3.41666670	     -3.49479637	     -1.06007489	      3.36005975	     -0.37791919	      1.51917108	     -0.08112184	     12.69013200	     -1.30037027	     -1.52246969	     46.45081812	      0.81071972	    -12.10386338	    -17.16437877	     -7.49999987	     14.29445977	     -1.66891262	     -2.16026972	     51.94639649	      0.90663565	    -15.09282439	     -8.78215887	     -7.49999987	    -16.11472066	      3.67006906	      0.84088311	     18.97214375	    -11.42565623	     12.25760676	     52.10479833	     71.14087709	     21.44078786	    -10.48376691	     27.05462247	     37.41139926	     63.68001051
